<?xml version="1.0" encoding="UTF-8"?>
<svg width="132px" height="135px" viewBox="0 0 132 135" version="1.1" xmlns="http://www.w3.org/2000/svg" xmlns:xlink="http://www.w3.org/1999/xlink">
    <!-- Generator: Sketch 49.1 (51147) - http://www.bohemiancoding.com/sketch -->
    <title>bar</title>
    <desc>Created with Sketch.</desc>
    <defs>
        <polygon id="path-1" points="0.000210638298 0.476428571 131.531681 0.476428571 131.531681 134.2855 0.000210638298 134.2855"></polygon>
    </defs>
    <g id="Page-1" stroke="none" stroke-width="1" fill="none" fill-rule="evenodd">
        <g id="Desktop" transform="translate(-446.000000, -696.000000)">
            <g id="bar" transform="translate(446.000000, 696.000000)">
                <g>
                    <polygon id="Fill-1" fill="#FFFFFF" points="59.6794468 37.7357857 42.597383 37.7357857 32.5120213 50.5929286 69.7648085 50.5929286"></polygon>
                    <polygon id="Fill-2" fill="#FFFFFF" points="44.2607234 32.0214286 58.3032766 32.0214286 58.3032766 23.45 44.2607234 23.45"></polygon>
                    <g id="Group-10" transform="translate(0.000000, 0.237857)">
                        <path d="M37.6466106,67.9372143 C39.1245894,67.7022143 40.5155043,68.7336429 40.7458021,70.2407857 L45.3791426,100.502214 C45.6101426,102.008643 44.5962702,103.420786 43.115483,103.655071 C42.9743553,103.677929 42.8332277,103.688643 42.6942064,103.688643 C41.3798234,103.688643 40.2248234,102.714357 40.0162915,101.352214 L35.3822489,71.0900714 C35.1519511,69.5836429 36.1658234,68.1722143 37.6466106,67.9372143 Z M37.450717,110.355071 L64.8259723,110.355071 L68.6715255,82.2215 L69.6081638,75.5757857 L69.8911213,73.4850714 L70.5792064,68.3965 L72.2460574,56.0693571 L30.0306319,56.0693571 L37.450717,110.355071 Z" id="Fill-3" fill="#FFFFFF"></path>
                        <path d="M94.8134936,73.5565714 C88.3328553,73.4801429 81.852217,73.4808571 75.3708766,73.4865714 L74.3373447,81.1201429 C77.4561957,84.7737143 80.5904936,88.4465714 83.7732383,92.1758571 C88.1931319,86.983 92.3370894,82.1658571 96.3932809,77.2737143 C96.8293021,76.748 97.098217,75.6051429 96.8293021,75.0672857 C96.4817489,74.3737143 95.519834,73.5651429 94.8134936,73.5565714" id="Fill-5" fill="#FFFFFF"></path>
                        <g id="Group-9">
                            <mask id="mask-2" fill="white">
                                <use xlink:href="#path-1"></use>
                            </mask>
                            <g id="Clip-8"></g>
                            <path d="M108.485253,79.3797857 C107.2467,79.7897857 105.760998,80.1412143 104.566679,79.8240714 C101.98004,79.1383571 100.576487,80.3376429 99.0746362,82.1862143 C95.4207638,86.6847857 91.5787213,91.0255 87.8581468,95.4690714 C87.2669553,96.1747857 86.5353383,97.0719286 86.5100617,97.9012143 C86.3752532,102.252643 86.4468702,106.6105 86.4468702,111.351214 C89.2272957,111.351214 91.5134234,111.387643 93.7981468,111.339071 C95.5218702,111.302643 97.0244234,111.771929 97.088317,113.722643 C97.1585298,115.859786 95.5513596,116.411214 93.7489979,116.4155 C87.1497,116.429071 80.5497,116.4405 73.9497,116.4255 C72.222466,116.421214 70.5184021,116.096929 70.4818915,113.873357 C70.4446787,111.606214 72.1066149,111.326214 73.8759766,111.3405 C76.1501681,111.358357 78.4257638,111.339071 81.0671681,111.339071 C81.0671681,106.586929 81.1788064,102.124786 80.9815085,97.6890714 C80.9379766,96.7062143 79.8939128,95.6740714 79.1615936,94.8076429 C77.2454872,92.5397857 75.3216574,90.2326429 73.3978277,87.9719286 L69.8801681,113.867643 C69.6955085,115.233357 68.5475298,116.069071 67.1917213,116.069071 L35.0848277,116.069071 C33.7290191,116.069071 32.5045085,115.233357 32.3198489,113.867643 L24.075466,53.7040714 C24.0628277,53.6090714 23.8985298,53.5133571 23.8985298,53.4190714 L23.8985298,53.4097857 C23.8985298,53.2933571 24.0544021,53.1783571 24.064934,53.0626429 C24.0684447,53.0297857 24.2264234,52.9969286 24.2306362,52.9640714 C24.2418702,52.8805 24.2559128,52.7969286 24.2748702,52.7147857 C24.2825936,52.6797857 24.290317,52.6440714 24.2994447,52.6090714 C24.323317,52.5176429 24.3521043,52.4276429 24.3858064,52.3390714 C24.3928277,52.3190714 24.3977426,52.2983571 24.405466,52.2783571 C24.4489979,52.1712143 24.4974447,52.0676429 24.554317,51.9662143 C24.5683596,51.9405 24.5809979,51.9155 24.5964447,51.8897857 C24.6427851,51.8133571 24.6835085,51.7383571 24.7375723,51.6662143 C24.7488064,51.6505 24.741083,51.6333571 24.7530191,51.6183571 L38.6432106,33.6483571 L38.6432106,20.9847857 C38.6432106,19.4605 39.9245936,18.2119286 41.4236362,18.2119286 L61.1962532,18.2119286 C62.6952957,18.2119286 63.9198064,19.4605 63.9198064,20.9847857 L63.9198064,34.0919286 L77.4954447,51.6183571 C77.5073809,51.6333571 77.5108915,51.6505 77.5228277,51.6662143 C77.5761894,51.7383571 77.6260404,51.8133571 77.6716787,51.8897857 C77.6871255,51.9155 77.7032745,51.9405 77.7180191,51.9662143 C77.7741894,52.0676429 77.8240404,52.1712143 77.8675723,52.2783571 C77.8752957,52.2983571 77.8795085,52.3190714 77.8872319,52.3390714 C77.9202319,52.4276429 77.9462106,52.5176429 77.970083,52.6090714 C77.9792106,52.6440714 77.9806149,52.6797857 77.9883383,52.7147857 C78.0065936,52.7969286 78.0079979,52.8805 78.0185298,52.9647857 C78.0227426,52.9976429 78.0009766,53.0297857 78.0037851,53.0626429 C78.0150191,53.1776429 77.9623596,53.2933571 77.9623596,53.4097857 L77.9623596,53.4190714 C77.9623596,53.5133571 78.0065936,53.6090714 77.9939553,53.7040714 L76.0609979,68.3862143 C81.6436149,68.3747857 87.226934,68.3983571 92.8088489,68.4555 C94.976317,68.4776429 96.4058489,68.1005 97.6682745,65.9755 C99.794317,62.3983571 104.334977,61.1583571 108.32587,62.4833571 C111.901104,63.6697857 114.449828,67.0533571 114.556551,70.7540714 C114.666785,74.5862143 112.257083,78.1326429 108.485253,79.3797857 M65.7657,0.476214286 C29.4446362,0.476214286 0.000210638298,30.4305 0.000210638298,67.3812143 C0.000210638298,104.331214 29.4446362,134.2855 65.7657,134.2855 C102.087466,134.2855 131.531891,104.331214 131.531891,67.3812143 C131.531891,30.4305 102.087466,0.476214286 65.7657,0.476214286" id="Fill-7" fill="#FFFFFF" mask="url(#mask-2)"></path>
                        </g>
                    </g>
                </g>
            </g>
        </g>
    </g>
</svg>