<?xml version="1.0" encoding="UTF-8"?>
<svg width="132px" height="135px" viewBox="0 0 132 135" version="1.1" xmlns="http://www.w3.org/2000/svg" xmlns:xlink="http://www.w3.org/1999/xlink">
    <!-- Generator: Sketch 49.1 (51147) - http://www.bohemiancoding.com/sketch -->
    <title>decoracion</title>
    <desc>Created with Sketch.</desc>
    <defs>
        <polygon id="path-1" points="0 0.4765 131.531681 0.4765 131.531681 134.285714 0 134.285714"></polygon>
    </defs>
    <g id="Page-1" stroke="none" stroke-width="1" fill="none" fill-rule="evenodd">
        <g id="Desktop" transform="translate(-701.000000, -696.000000)">
            <g id="decoracion" transform="translate(701.000000, 696.000000)">
                <g>
                    <path d="M15.6362426,44.8059286 L17.3508383,87.9930714 C17.3620723,88.2816429 17.541817,88.5323571 17.8072213,88.6323571 L54.237817,102.315929 L53.4584553,53.8380714 L15.6362426,44.8059286 Z" id="Fill-1" fill="#FFFFFF"></path>
                    <path d="M58.7915362,101.493 L74.6111745,91.2922857 C71.1286213,86.6458571 69.0545362,80.8501429 69.0545362,74.5687143 C69.0545362,63.058 76.0091106,53.1722857 85.866983,49.0208571 L86.0214511,40.9458571 L58.0191957,53.4944286 L58.7915362,101.493 Z" id="Fill-3" fill="#FFFFFF"></path>
                    <polygon id="Fill-5" fill="#FFFFFF" points="47.222017 32.1807143 21.3703787 41.4028571 55.4902723 49.5507143 79.8498894 38.635"></polygon>
                    <g id="Group-9" transform="translate(0.000000, 0.237857)">
                        <mask id="mask-2" fill="white">
                            <use xlink:href="#path-1"></use>
                        </mask>
                        <g id="Clip-8"></g>
                        <path d="M98.0955894,101.905786 C90.2226319,102.4465 82.9998447,99.5472143 77.7240574,94.5479286 C77.7240574,94.5479286 61.6776319,104.760071 57.6530362,107.227929 C57.0941426,107.570786 56.4137809,107.6365 55.8001213,107.409357 L16.2253979,92.7600714 C14.2236319,92.0079286 12.8741426,90.1157857 12.7877809,87.9472143 L10.9538234,41.7515 C10.9538234,41.7450714 10.951717,41.7379286 10.951717,41.7315 C10.8976532,40.7007857 11.5190362,39.7572143 12.4760362,39.4157857 L46.294717,27.3500714 C46.6773766,27.2143571 47.0888234,27.1836429 47.4862277,27.2622143 L87.8782277,35.2529286 C87.979334,35.2729286 88.0762277,35.3036429 88.171717,35.3365 C88.1920787,35.3429286 88.2131426,35.3465 88.2328021,35.3536429 C88.3612915,35.4015 88.4820574,35.4636429 88.5979085,35.5329286 C88.6344191,35.5543571 88.6681213,35.5807857 88.7039298,35.6050714 C88.787483,35.6615 88.8668234,35.7222143 88.9412489,35.7886429 C88.9602064,35.8050714 88.9812702,35.8165 88.9995255,35.8336429 C90.4866319,37.2443571 90.800483,38.8365 90.6031851,39.9665 L90.4620574,47.3229286 C92.3205894,46.9129286 94.2465255,46.6915 96.223717,46.6915 C111.5631,46.6915 123.974611,59.6915 123.371483,75.4307857 C122.834355,89.4350714 111.84044,100.962214 98.0955894,101.905786 M65.7661213,0.4765 C29.4443553,0.4765 -7.02127659e-05,30.4307857 -7.02127659e-05,67.3807857 C-7.02127659e-05,104.3315 29.4443553,134.285786 65.7661213,134.285786 C102.087887,134.285786 131.532313,104.3315 131.532313,67.3807857 C131.532313,30.4307857 102.087887,0.4765 65.7661213,0.4765" id="Fill-7" fill="#FFFFFF" mask="url(#mask-2)"></path>
                    </g>
                </g>
            </g>
        </g>
    </g>
</svg>