<?xml version="1.0" encoding="UTF-8"?>
<svg width="87px" height="86px" viewBox="0 0 87 86" version="1.1" xmlns="http://www.w3.org/2000/svg" xmlns:xlink="http://www.w3.org/1999/xlink">
    <!-- Generator: Sketch 49.1 (51147) - http://www.bohemiancoding.com/sketch -->
    <title>logistica</title>
    <desc>Created with Sketch.</desc>
    <defs></defs>
    <g id="Page-1" stroke="none" stroke-width="1" fill="none" fill-rule="evenodd">
        <g id="Desktop" transform="translate(-469.000000, -1855.000000)">
            <g id="Page-1" transform="translate(290.000000, 1737.000000)">
                <g id="Group-35" transform="translate(65.000000, 0.673000)">
                    <g id="logistica" transform="translate(116.000000, 119.000000)">
                        <g>
                            <path d="M39.6465,34.7311 C40.3145,34.8401 40.9985,34.8981 41.6955,34.8981 C42.3585,34.8981 43.0095,34.8471 43.6455,34.7491 L43.6455,43.2221 L39.6465,43.2221 L39.6465,34.7311 Z M41.6955,11.5241 C47.5655,11.5241 52.3405,16.2991 52.3405,22.1691 C52.3405,26.6111 49.6045,30.4241 45.7305,32.0171 C45.0665,32.2901 44.3685,32.4971 43.6455,32.6321 C43.0135,32.7491 42.3625,32.8141 41.6955,32.8141 C40.9945,32.8141 40.3105,32.7441 39.6465,32.6141 C38.9235,32.4721 38.2255,32.2591 37.5625,31.9781 C33.7395,30.3611 31.0505,26.5731 31.0505,22.1691 C31.0505,16.2991 35.8265,11.5241 41.6955,11.5241 Z M60.1155,62.2691 L60.1155,65.4931 L55.9545,65.4931 C55.8915,65.4931 55.8305,65.4991 55.7715,65.5101 L27.6415,65.5101 C27.5815,65.4991 27.5205,65.4931 27.4585,65.4931 L23.2975,65.4931 L23.2975,62.2691 L60.1155,62.2691 Z M52.6105,60.1851 L52.6105,60.4761 L30.4045,60.4761 L30.4045,60.1851 L30.4045,44.7111 L37.5625,44.7111 L38.3905,44.7111 L38.3905,53.6101 L39.6465,52.7941 L39.9555,52.5941 L41.6615,53.6101 L43.4155,52.5941 L43.6455,52.7461 L44.9485,53.6101 L44.9485,44.7111 L45.7305,44.7111 L52.6105,44.7111 L52.6105,60.1851 Z M29.6605,43.2221 C29.2485,43.2221 28.9155,43.5561 28.9155,43.9671 L28.9155,60.1851 L22.2555,60.1851 C21.6795,60.1851 21.2125,60.6511 21.2125,61.2271 L21.2125,66.5351 L21.2125,66.5521 L21.2125,69.0161 C21.2125,69.5921 21.6795,70.0591 22.2555,70.0591 L27.4585,70.0591 C28.0345,70.0591 28.5005,69.5921 28.5005,69.0161 L28.5005,67.5941 L54.9115,67.5941 L54.9115,69.0161 C54.9115,69.5921 55.3785,70.0591 55.9545,70.0591 L61.1575,70.0591 C61.7325,70.0591 62.1995,69.5921 62.1995,69.0161 L62.1995,66.5521 L62.1995,66.5351 L62.1995,61.2271 C62.1995,60.6511 61.7325,60.1851 61.1575,60.1851 L54.0995,60.1851 L54.0995,43.9671 C54.0995,43.5561 53.7655,43.2221 53.3545,43.2221 L45.7305,43.2221 L45.7305,34.2391 C50.7775,32.5481 54.4255,27.7781 54.4255,22.1691 C54.4255,15.1501 48.7145,9.4391 41.6955,9.4391 C34.6765,9.4391 28.9665,15.1501 28.9665,22.1691 C28.9665,27.7411 32.5665,32.4851 37.5625,34.2051 L37.5625,43.2221 L29.6605,43.2221 Z" id="Fill-5" fill="#FFFFFF"></path>
                            <path d="M41.6959,14.5175 C45.9149,14.5175 49.3469,17.9495 49.3469,22.1685 C49.3469,25.6695 46.9829,28.6275 43.7669,29.5325 C43.1079,29.7185 42.4139,29.8205 41.6959,29.8205 C40.9779,29.8205 40.2839,29.7185 39.6249,29.5325 C36.4089,28.6275 34.0449,25.6695 34.0449,22.1685 C34.0449,17.9495 37.4769,14.5175 41.6959,14.5175 M37.5919,30.3315 C38.8269,30.9555 40.2209,31.3085 41.6959,31.3085 C43.1359,31.3085 44.4979,30.9735 45.7109,30.3775 C48.7429,28.8885 50.8359,25.7685 50.8359,22.1685 C50.8359,17.1285 46.7359,13.0285 41.6959,13.0285 C36.6559,13.0285 32.5559,17.1285 32.5559,22.1685 C32.5559,25.7335 34.6079,28.8255 37.5919,30.3315" id="Fill-7" fill="#FFFFFF"></path>
                            <path d="M41.6959,23.668 C42.5239,23.668 43.1949,22.997 43.1949,22.169 C43.1949,21.649 42.9309,21.192 42.5289,20.923 L41.7449,16.557 L40.9739,20.855 C40.5109,21.111 40.1969,21.603 40.1969,22.169 C40.1969,22.997 40.8679,23.668 41.6959,23.668" id="Fill-9" fill="#FFFFFF"></path>
                            <path d="M82.543,41.1633 C82.543,63.7163 64.26,82.0003 41.706,82.0003 C19.153,82.0003 0.87,63.7163 0.87,41.1633 C0.87,18.6093 19.153,0.3263 41.706,0.3263 C64.26,0.3263 82.543,18.6093 82.543,41.1633 Z" id="Stroke-29" stroke="#FFFFFF" stroke-width="4"></path>
                            <polygon id="Fill-13" fill="#FFFFFF" points="32.633 58.5 33.029 58.5 33.029 55.596 32.633 55.596"></polygon>
                            <polygon id="Fill-15" fill="#FFFFFF" points="38.334 58.5 38.669 58.5 38.669 55.596 38.334 55.596"></polygon>
                            <polygon id="Fill-16" fill="#FFFFFF" points="33.316 58.5 33.712 58.5 33.712 55.596 33.316 55.596"></polygon>
                            <polygon id="Fill-17" fill="#FFFFFF" points="34.823 58.5 35.219 58.5 35.219 55.596 34.823 55.596"></polygon>
                            <polygon id="Fill-18" fill="#FFFFFF" points="36.224 58.5 36.559 58.5 36.559 55.596 36.224 55.596"></polygon>
                            <polygon id="Fill-19" fill="#FFFFFF" points="36.796 58.5 37.131 58.5 37.131 55.596 36.796 55.596"></polygon>
                            <polygon id="Fill-20" fill="#FFFFFF" points="35.481 58.5 36.035 58.5 36.035 55.596 35.481 55.596"></polygon>
                            <polygon id="Fill-21" fill="#FFFFFF" points="33.912 58.5 34.552 58.5 34.552 55.596 33.912 55.596"></polygon>
                            <polygon id="Fill-22" fill="#FFFFFF" points="37.4086 55.5965 37.4086 58.5005 37.6086 58.5005 38.0486 58.5005 38.0486 55.5965 37.5626 55.5965"></polygon>
                        </g>
                    </g>
                </g>
            </g>
        </g>
    </g>
</svg>