<?xml version="1.0" encoding="UTF-8"?>
<svg width="100%" height="55px" viewBox="0 0 66 87" version="1.1" xmlns="http://www.w3.org/2000/svg" xmlns:xlink="http://www.w3.org/1999/xlink">
    <!-- Generator: Sketch 49.1 (51147) - http://www.bohemiancoding.com/sketch -->
    <title>logo-skyled</title>
    <desc>Created with Sketch.</desc>
    <defs></defs>
    <g id="Page-1" stroke="none" stroke-width="1" fill="none" fill-rule="evenodd">
        <g id="Desktop" transform="translate(-22.000000, -33.000000)" fill="#000000">
            <g id="logo-skyled" transform="translate(22.000000, 33.000000)">
                <polygon id="Fill-1" points="32 0 28.501395 11.9992688 25 24 32 24 39 24 35.5 11.9992688"></polygon>
                <polygon id="Fill-2" points="0 27 9.99947538 35.7199296 37.8150698 35.7199296 17.0572497 49.6020576 12.2457866 65 66 27"></polygon>
                <polygon id="Fill-3" points="39 48.3042879 46.5007194 43 54 64 40.2964029 53.5"></polygon>
                <g id="Group-22" transform="translate(5.000000, 68.000000)">
                    <path d="M3.099155,4.04203077 C3.26018,4.04203077 3.41693,4.05226154 3.569405,4.07126154 C4.196405,4.16918462 4.71938,4.45856923 5.136905,4.94087692 C5.55443,5.42318462 5.778155,5.98587692 5.80523,6.62895385 L5.379155,6.64356923 C5.359205,6.10718462 5.173955,5.63803077 4.823405,5.23172308 C4.47143,4.82833846 4.033955,4.58718462 3.512405,4.50972308 C3.150455,4.45126154 2.799905,4.48633846 2.457905,4.61203077 C2.10593,4.72895385 1.81238,4.92772308 1.574405,5.21126154 C1.33643,5.49333846 1.183955,5.81487692 1.11698,6.17587692 C1.05143,6.54564615 1.07993,6.90226154 1.203905,7.24133846 C1.346405,7.6418 1.62143,8.00718462 2.030405,8.33749231 C2.30543,8.5728 2.71013,8.82126154 3.241655,9.08433846 L3.25448,9.08433846 C3.92993,9.43364615 4.37168,9.6748 4.581155,9.79903077 C5.08418,10.1220308 5.464655,10.4815692 5.721155,10.8820308 C6.006155,11.3117231 6.16148,11.7881846 6.191405,12.3143385 C6.21848,12.8317231 6.114455,13.3184154 5.877905,13.7758769 C5.63993,14.2348 5.307905,14.6016462 4.880405,14.8793385 C4.452905,15.1555692 3.98693,15.3046462 3.483905,15.3251077 C2.694455,15.3543385 2.00048,15.0956462 1.403405,14.5490308 C0.833405,14.0141077 0.49568,13.3418 0.391655,12.5335692 C0.363155,12.3391846 0.35318,12.1389538 0.363155,11.9328769 L0.790655,11.9489538 C0.78068,12.1243385 0.790655,12.2982615 0.81773,12.4751077 C0.904655,13.1766462 1.19393,13.7554154 1.688405,14.2143385 C2.201405,14.6908 2.794205,14.9144154 3.469655,14.8866462 C3.897155,14.8764154 4.293305,14.7521846 4.65953,14.5139538 C5.025755,14.2757231 5.305055,13.9600308 5.50028,13.5712615 C5.69408,13.1810308 5.77958,12.7674154 5.755355,12.3289538 C5.732555,11.8904923 5.601455,11.4914923 5.364905,11.1304923 C5.136905,10.7782615 4.79918,10.4640308 4.353155,10.1804923 C4.15223,10.0533385 3.72188,9.81949231 3.056405,9.47895385 C2.494955,9.19541538 2.06318,8.9338 1.759655,8.68972308 C1.29368,8.30972308 0.975905,7.88149231 0.804905,7.40356923 C0.65243,6.98556923 0.613955,6.55149231 0.690905,6.1028 C0.776405,5.65556923 0.96593,5.25949231 1.260905,4.91895385 C1.545905,4.58718462 1.896455,4.34456923 2.315405,4.18818462 C2.56193,4.10049231 2.82413,4.05226154 3.099155,4.04203077" id="Fill-4"></path>
                    <path d="M3.360785,15.5102846 C2.58131,15.5102846 1.88306,15.2340538 1.28456,14.6874385 C0.68321,14.1218231 0.32411,13.4056692 0.214385,12.5565154 C0.18446,12.3519 0.17591,12.1385154 0.18446,11.9251308 L0.19301,11.7453615 L0.978185,11.7731308 L0.96821,11.9587462 C0.958235,12.1209769 0.966785,12.2788231 0.99386,12.4439769 C1.07651,13.1148231 1.342985,13.6482846 1.807535,14.0794385 C2.26211,14.5018231 2.76941,14.7064385 3.355085,14.7064385 L3.46196,14.7035154 C3.85811,14.6947462 4.227185,14.5778231 4.563485,14.3600538 C4.899785,14.1408231 5.161985,13.8470538 5.341535,13.4875154 C5.521085,13.1294385 5.59946,12.7421308 5.578085,12.3387462 C5.55671,11.9368231 5.43416,11.5641308 5.21756,11.2309 C5.00381,10.9049769 4.683185,10.6039 4.25996,10.3364385 C4.06046,10.2107462 3.628685,9.9769 2.976035,9.64074615 C2.408885,9.35574615 1.96286,9.08536154 1.64936,8.83397692 C1.15916,8.43205385 0.818585,7.97313077 0.63761,7.46597692 C0.47516,7.01728462 0.43241,6.54813077 0.51506,6.07166923 C0.607685,5.5879 0.81431,5.15966923 1.12781,4.79720769 C1.431335,4.44643846 1.80896,4.18336154 2.254985,4.01674615 C2.51861,3.92174615 2.799335,3.87059231 3.092885,3.8589 L3.095735,3.8589 C3.269585,3.8589 3.432035,3.86913077 3.59021,3.88959231 C4.264235,3.99482308 4.825685,4.30759231 5.270285,4.82059231 C5.71346,5.33359231 5.954285,5.93866923 5.98421,6.61974615 L5.99276,6.8039 L5.207585,6.83313077 L5.20046,6.65043846 C5.181935,6.15497692 5.01521,5.73113077 4.69031,5.35405385 C4.363985,4.9799 3.970685,4.76213077 3.48761,4.69197692 C3.149885,4.63936154 2.830685,4.66713077 2.517185,4.78405385 C2.19086,4.89220769 1.927235,5.07051538 1.70921,5.33066923 C1.491185,5.59082308 1.354385,5.87728462 1.29311,6.21051538 C1.23326,6.54520769 1.25891,6.87259231 1.371485,7.17805385 C1.50116,7.5449 1.76051,7.8869 2.140985,8.19528462 C2.39891,8.41597692 2.782235,8.65274615 3.280985,8.90266923 L3.335135,8.92166923 C3.967835,9.24905385 4.44236,9.50482308 4.67036,9.64074615 C5.20046,9.98274615 5.60231,10.3642077 5.87021,10.7822077 C6.16946,11.2323615 6.339035,11.7468231 6.36896,12.3051308 C6.398885,12.8532077 6.28631,13.3764385 6.03551,13.8616692 C5.78471,14.3439769 5.42846,14.7400538 4.976735,15.0338231 C4.523585,15.3261308 4.02341,15.4854385 3.49046,15.5073615 C3.44771,15.5088231 3.403535,15.5102846 3.360785,15.5102846" id="Fill-6"></path>
                    <polygon id="Fill-8" points="8.24255 0.563715385 8.67005 0.563715385 8.67005 14.4483308 14.3558 4.33448462 14.7263 4.55225385 11.77655 9.79917692 16.0943 15.1206385 15.76655 15.3968692 11.54855 10.2098692 8.64155 15.3691 8.24255 16.0852538 8.24255 15.2667923"></polygon>
                    <polygon id="Fill-10" points="8.064425 16.7734923 8.064425 0.380876923 8.848175 0.380876923 8.848175 13.7656462 14.29025 4.08441538 14.969975 4.48633846 11.99315 9.78149231 16.346525 15.1453385 15.74375 15.6539538 15.631175 15.5151077 11.575625 10.5283385"></polygon>
                    <polygon id="Fill-12" points="17.06387 4.08631538 21.28187 14.4763923 25.79912 4.11554615 26.182445 4.30408462 21.46712 15.1209308 19.87112 18.8171615 19.40087 18.8171615 21.023945 15.0317769 16.66487 4.24562308"></polygon>
                    <polygon id="Fill-14" points="19.98626 19 19.126985 19 20.831285 15.0304615 16.430885 4.14346154 17.16191 3.85115385 17.22746 4.01630769 21.287285 14.0161538 25.71191 3.86869231 26.417285 4.218 26.346035 4.37876923"></polygon>
                    <polygon id="Fill-16" points="30.032225 3.41970769 31.519925 3.41970769 31.519925 13.9544769 36.441875 13.9544769 36.441875 15.2347846 30.032225 15.2347846"></polygon>
                    <polygon id="Fill-18" points="44.067905 9.69555385 39.590555 9.69555385 39.590555 13.9544769 44.580905 13.9544769 44.580905 15.2347846 38.102855 15.2347846 38.102855 3.41970769 44.32583 3.41970769 44.32583 4.70001538 39.590555 4.70001538 39.590555 8.43424615 44.067905 8.43424615"></polygon>
                    <path d="M48.0033275,14.0259462 C48.3795275,14.0961 48.9253025,14.1136385 49.5081275,14.1136385 C52.6858775,14.1136385 54.4129775,12.2911 54.4129775,9.10056154 C54.4300775,6.31340769 52.8925025,4.54202308 49.7475275,4.54202308 C48.9780275,4.54202308 48.3966275,4.61363846 48.0033275,4.69986923 L48.0033275,14.0259462 Z M46.5170525,3.57886923 C47.4233525,3.43856154 48.4992275,3.33333077 49.6791275,3.33333077 C51.8152025,3.33333077 53.3356775,3.84048462 54.3431525,4.8051 C55.3691525,5.76971538 55.9676525,7.13625385 55.9676525,9.04794615 C55.9676525,10.9757154 55.3876775,12.5527154 54.3103775,13.6386385 C53.2330775,14.7435615 51.4561025,15.3398692 49.2174275,15.3398692 C48.1572275,15.3398692 47.2680275,15.2872538 46.5170525,15.1995615 L46.5170525,3.57886923 Z" id="Fill-20"></path>
                </g>
            </g>
        </g>
    </g>
</svg>
