<?xml version="1.0" encoding="UTF-8"?>
<svg width="132px" height="135px" viewBox="0 0 132 135" version="1.1" xmlns="http://www.w3.org/2000/svg" xmlns:xlink="http://www.w3.org/1999/xlink">
    <!-- Generator: Sketch 49.1 (51147) - http://www.bohemiancoding.com/sketch -->
    <title>lounge</title>
    <desc>Created with Sketch.</desc>
    <defs>
        <polygon id="path-1" points="7.0212766e-05 0.476428571 131.531681 0.476428571 131.531681 134.285714 7.0212766e-05 134.285714"></polygon>
    </defs>
    <g id="Page-1" stroke="none" stroke-width="1" fill="none" fill-rule="evenodd">
        <g id="Desktop" transform="translate(-160.000000, -696.000000)">
            <g id="lounge" transform="translate(160.000000, 696.000000)">
                <g>
                    <path d="M111.673123,51.5573571 C111.862698,51.3295 111.979251,50.8330714 111.861996,50.5995 C111.71174,50.2980714 111.293974,49.9473571 110.987145,49.9437857 C107.225847,49.8995 103.463145,49.9152143 99.7011447,49.9152143 C99.6456766,50.0180714 99.5909106,50.1216429 99.5361447,50.2245 C101.737315,52.8045 103.939187,55.3845 106.194421,58.0266429 C108.113336,55.7723571 109.912187,53.6816429 111.673123,51.5573571" id="Fill-1" fill="#FFFFFF"></path>
                    <g id="Group-5" transform="translate(0.000000, 0.237857)">
                        <mask id="mask-2" fill="white">
                            <use xlink:href="#path-1"></use>
                        </mask>
                        <g id="Clip-4"></g>
                        <path d="M122.598581,76.2394286 C117.949091,76.2394286 113.2989,76.2894286 108.650815,76.2122857 C107.382772,76.1915714 106.762091,76.6994286 106.618857,77.8615714 C106.268496,80.7037143 105.796666,83.5472857 105.699772,86.4022857 C105.53407,91.2951429 105.616921,96.1972857 105.599368,101.095857 C105.598666,101.342286 105.635879,101.589429 105.668177,101.998714 C108.874091,101.998714 111.943794,102.027286 115.012794,101.984429 C116.190262,101.968 116.784262,102.563 117.030006,103.625857 C117.341049,104.968 116.659985,105.874429 115.290836,105.885143 C112.094751,105.910857 108.897964,105.893714 105.701879,105.893714 C101.259517,105.893714 96.8178574,105.895857 92.3761979,105.893 C90.7718362,105.891571 90.1848574,105.418 90.1925809,104.154429 C90.2010064,102.740143 90.913666,101.845857 92.3642617,101.836571 C94.9789851,101.820857 97.5944106,101.666571 100.209836,101.666571 L101.722921,101.666571 C101.722921,100.952286 101.751006,99.4315714 101.718709,98.3037143 C101.548794,92.3987143 101.390113,86.5758571 101.159815,80.6737143 C101.115581,79.5508571 100.789091,78.4765714 100.544751,77.368 C100.356581,76.5165714 99.8356021,76.1951429 98.922134,76.203 C94.1897936,76.2437143 89.4574532,76.2294286 84.7251128,76.228 C84.5594106,76.228 84.3930064,76.2387143 84.2273043,76.2365714 C82.8539426,76.2215714 81.7551128,75.348 81.7635383,74.2758571 C81.7719638,73.2258571 82.7837298,72.3922857 84.1416447,72.3815714 C87.0056234,72.3601429 89.8703043,72.3665714 92.734283,72.3665714 C102.696772,72.3651429 112.659964,72.3658571 122.622453,72.3665714 C124.412177,72.3665714 125.486432,73.0651429 125.531368,74.253 C125.577006,75.4465714 124.401645,76.2394286 122.598581,76.2394286 M83.7505596,79.3265714 C81.5234106,82.6222857 79.9913681,86.2415714 78.6713681,89.998 C77.9102617,92.163 76.8605809,94.258 75.6880277,96.2287143 C74.4621128,98.2908571 73.1758149,99.1401429 70.2198574,100.689429 C70.2198574,101.858714 70.2493468,103.037286 70.212134,104.214429 C70.173517,105.421571 69.5809213,105.896571 68.2230064,105.897286 C66.8524532,105.898714 66.2970702,105.431571 66.246517,104.215857 C66.2289638,103.794429 66.2528362,103.242286 66.2444106,102.820143 C66.2373894,102.446571 66.2128149,102.380857 66.2001766,101.666571 L36.0143043,101.666571 C36.0143043,102.380857 36.0332617,103.245857 36.0100915,103.906571 C35.9644532,105.253 35.4160915,105.828 34.0469426,105.834429 C32.5844106,105.841571 32.0325383,105.380143 31.9749638,103.978714 C31.9524957,103.430143 31.965134,102.896571 31.9784745,102.347286 C31.9918149,101.804429 32.0262191,101.270143 32.0543043,100.655143 C27.6358149,98.9565714 25.3391553,95.3165714 23.9089213,91.0337143 C22.2139851,85.9572857 20.0268574,81.1772857 16.7879426,76.9172857 C16.2824106,76.2522857 15.7839,75.9787143 14.9448574,75.9558571 C10.855666,75.8451429 7.11121915,72.9201429 6.22092128,69.2387143 C5.15438936,64.8251429 8.0366234,60.4494286 12.7479,59.3294286 C17.4409213,58.213 21.801134,60.168 24.1279851,64.4622857 C26.6142191,69.0522857 28.8252191,73.7665714 30.2231553,78.8365714 C30.2779213,79.0358571 30.3699,79.2237143 30.4120277,79.3315714 C44.2769426,74.8622857 57.9550915,74.973 71.7975383,79.3294286 C71.9295383,78.8958571 72.1029638,78.3022857 72.2890277,77.713 C73.8428362,72.7908571 75.937283,68.103 78.544283,63.6801429 C80.5973043,60.198 83.8769426,58.818 87.7646234,59.0844286 C91.2261128,59.3215714 93.9503681,60.9444286 95.5020702,64.213 C95.8685809,64.9851429 96.4583681,65.8222857 95.8173255,66.8115714 C95.4388787,67.3951429 95.0365596,67.648 94.3231979,67.6408571 C90.6279,67.6022857 86.9311979,67.5915714 83.2351979,67.638 C80.8669213,67.668 78.8651553,69.203 78.132134,71.4072857 C77.4152617,73.5622857 77.9959213,76.0008571 79.8593681,77.2972857 C81.0024319,78.0922857 82.4424957,78.4451429 83.8565809,79.0415714 C83.9029213,78.9087143 83.8713255,79.148 83.7505596,79.3265714 M29.5378787,32.6908571 C33.3799213,30.6694286 37.6291979,29.9594286 41.8763681,29.4458571 C49.504283,28.5237143 57.1209638,28.6487143 64.6758574,30.1537143 C68.5516021,30.9251429 72.3543255,31.933 75.5595383,34.5072857 C79.6971766,37.8301429 81.8084745,42.0758571 81.4279213,47.4894286 C81.2327298,50.2672857 81.0115596,53.0444286 80.7328149,55.8144286 C80.6920915,56.2208571 80.353666,56.7401429 80.0040064,56.9465714 C77.6392404,58.3422857 75.7694745,60.2194286 74.5758574,62.7165714 C72.8731979,66.278 71.2519851,69.8794286 69.5984745,73.4651429 C69.4601553,73.7644286 69.3393894,74.073 69.2031766,74.3958571 C57.1378149,71.4815714 45.1145809,71.3837143 33.1355809,74.3608571 C31.5171766,70.8444286 29.9647723,67.3987143 28.3491766,63.9837143 C26.9357936,60.9951429 25.0098574,58.4565714 22.0468787,56.8601429 C21.7554957,56.703 21.4844745,56.2394286 21.4528787,55.8944286 C21.1776447,52.8694286 20.8237723,49.8415714 20.7500489,46.8087143 C20.5892617,40.1608571 23.9545596,35.6287143 29.5378787,32.6908571 M95.8903468,48.2487143 C96.1599638,47.8301429 96.8789426,47.5072857 97.4118574,47.5001429 C101.646389,47.4437143 105.882326,47.448 110.116857,47.4908571 C111.057709,47.5008571 111.678389,47.3372857 112.226751,46.4144286 C113.149347,44.8615714 115.120921,44.3237143 116.85307,44.8987143 C118.405474,45.4137143 119.512028,46.883 119.557666,48.4894286 C119.606113,50.153 118.559943,51.6922857 116.922581,52.2337143 C116.384751,52.4115714 115.739496,52.5644286 115.221326,52.4265714 C114.098623,52.1287143 113.489177,52.6494286 112.8369,53.4522857 C111.250794,55.4051429 109.58324,57.2894286 107.967645,59.2187143 C107.711368,59.5244286 107.393304,59.9144286 107.38207,60.2744286 C107.323794,62.163 107.354687,64.0551429 107.354687,66.113 C108.562347,66.113 109.554453,66.1287143 110.54656,66.108 C111.294326,66.0922857 111.947304,66.2958571 111.974687,67.143 C112.005581,68.0708571 111.307666,68.3101429 110.524794,68.3122857 C107.660113,68.318 104.79473,68.323 101.930049,68.3165714 C101.180177,68.3151429 100.440134,68.1751429 100.423985,67.2094286 C100.407836,66.2251429 101.129623,66.1051429 101.897751,66.1108571 C102.884943,66.1187143 103.872836,66.113 105.020113,66.113 C105.020113,64.0501429 105.067857,62.118 104.982198,60.1922857 C104.96324,59.7658571 104.510368,59.3272857 104.192304,58.9508571 C101.594432,55.8758571 98.965666,52.828 96.391666,49.7322857 C96.0658787,49.3401429 95.7134106,48.5237143 95.8903468,48.2487143 M65.7662617,0.475857143 C29.4444957,0.475857143 7.0212766e-05,30.4301429 7.0212766e-05,67.3808571 C7.0212766e-05,104.331571 29.4444957,134.285857 65.7662617,134.285857 C102.087326,134.285857 131.531751,104.331571 131.531751,67.3808571 C131.531751,30.4301429 102.087326,0.475857143 65.7662617,0.475857143" id="Fill-3" fill="#FFFFFF" mask="url(#mask-2)"></path>
                    </g>
                </g>
            </g>
        </g>
    </g>
</svg>