<?xml version="1.0" encoding="UTF-8"?>
<svg width="87px" height="86px" viewBox="0 0 87 86" version="1.1" xmlns="http://www.w3.org/2000/svg" xmlns:xlink="http://www.w3.org/1999/xlink">
    <!-- Generator: Sketch 49.1 (51147) - http://www.bohemiancoding.com/sketch -->
    <title>Pedido</title>
    <desc>Created with Sketch.</desc>
    <defs></defs>
    <g id="Page-1" stroke="none" stroke-width="1" fill="none" fill-rule="evenodd">
        <g id="Desktop" transform="translate(-469.000000, -1738.000000)">
            <g id="Page-1" transform="translate(290.000000, 1737.000000)">
                <g id="Group-35" transform="translate(65.000000, 0.673000)">
                    <g id="Pedido" transform="translate(116.000000, 2.000000)">
                        <g>
                            <path d="M63.978,36.8937 C63.664,23.4367 55.982,16.3277 41.706,16.3277 C27.43,16.3277 19.749,23.4367 19.435,36.8937 L21.334,36.8937 C22.029,32.3577 23.497,28.6277 25.726,25.7597 C29.279,21.1887 34.655,18.8717 41.706,18.8717 C48.757,18.8717 54.134,21.1887 57.686,25.7597 C59.915,28.6277 61.383,32.3577 62.078,36.8937 L63.978,36.8937 Z M59.088,43.4427 C59.088,42.1727 59.023,40.9787 58.927,39.8217 C56.736,37.8167 52.757,36.2957 47.736,35.7297 C48.395,36.4717 48.965,37.4467 49.31,38.7297 C46.235,36.3077 40.198,36.8837 35.632,31.4617 C35.37,31.1597 35.144,30.8697 34.948,30.6057 C34.946,30.6027 34.943,30.5997 34.941,30.5967 C34.129,29.4987 33.852,28.8447 33.836,29.5677 C33.703,35.7997 29.285,40.6587 24.381,41.3437 C24.35,42.0287 24.324,42.7207 24.324,43.4427 C24.324,46.0767 24.754,48.4777 25.486,50.6417 C28.241,53.9647 32.791,54.9027 36.818,55.1517 C37.565,53.9627 39.243,53.1317 41.196,53.1317 C43.845,53.1317 45.992,54.6557 45.992,56.5357 C45.992,58.4157 43.845,59.9397 41.196,59.9397 C39.159,59.9397 37.423,59.0367 36.728,57.7647 C33.914,57.6017 30.82,57.1217 28.062,55.8197 C31.94,61.5357 37.952,64.5577 41.706,64.5577 C47.606,64.5577 59.088,57.1057 59.088,43.4427 Z M69.539,41.8317 L69.539,47.2637 C69.539,49.9907 67.329,52.2017 64.601,52.2017 L61.018,52.2017 C57.468,62.0597 48.401,68.0147 41.706,68.0147 C35.011,68.0147 25.945,62.0597 22.394,52.2017 L18.811,52.2017 C16.084,52.2017 13.873,49.9907 13.873,47.2637 L13.873,41.8317 C13.873,39.9547 14.92,38.3227 16.462,37.4877 C16.513,29.7757 18.761,23.7527 23.152,19.5887 C27.507,15.4587 33.75,13.3647 41.706,13.3647 C49.663,13.3647 55.905,15.4587 60.261,19.5887 C64.651,23.7527 66.899,29.7757 66.951,37.4877 C68.492,38.3227 69.539,39.9547 69.539,41.8317 Z M48.936,40.5667 C47.358,40.5667 46.078,41.8467 46.078,43.4247 C46.078,45.0037 47.358,46.2827 48.936,46.2827 C50.515,46.2827 51.794,45.0037 51.794,43.4247 C51.794,41.8467 50.515,40.5667 48.936,40.5667 Z M37.335,43.4247 C37.335,45.0037 36.055,46.2827 34.476,46.2827 C32.898,46.2827 31.618,45.0037 31.618,43.4247 C31.618,41.8467 32.898,40.5667 34.476,40.5667 C36.055,40.5667 37.335,41.8467 37.335,43.4247 Z" id="Fill-3" fill="#FFFFFF"></path>
                            <path d="M82.543,41.1633 C82.543,63.7163 64.26,82.0003 41.706,82.0003 C19.153,82.0003 0.87,63.7163 0.87,41.1633 C0.87,18.6093 19.153,0.3263 41.706,0.3263 C64.26,0.3263 82.543,18.6093 82.543,41.1633 Z" id="Stroke-28" stroke="#FFFFFF" stroke-width="4"></path>
                        </g>
                    </g>
                </g>
            </g>
        </g>
    </g>
</svg>