<?xml version="1.0" encoding="UTF-8"?>
<svg width="413px" height="437px" viewBox="0 0 413 437" version="1.1" xmlns="http://www.w3.org/2000/svg" xmlns:xlink="http://www.w3.org/1999/xlink">
    <!-- Generator: Sketch 49.1 (51147) - http://www.bohemiancoding.com/sketch -->
    <title>politicas</title>
    <desc>Created with Sketch.</desc>
    <defs>
        <polygon id="path-1" points="0 437 352 437 352 0.327 0 0.327"></polygon>
    </defs>
    <g id="Page-1" stroke="none" stroke-width="1" fill="none" fill-rule="evenodd">
        <g id="Desktop" transform="translate(-289.000000, -1738.000000)">
            <g id="politicas" transform="translate(290.000000, 1737.000000)">
                <g id="Group-35" transform="translate(65.000000, 0.673000)">
                    <path d="M148.1853,177.9349 L148.1853,174.1249 L153.5623,174.1249 L155.1583,174.1249 L155.1583,177.9349 L153.8733,177.9349 L148.1853,177.9349 Z M153.5623,173.6789 L147.9623,173.6789 C147.8383,173.6789 147.7383,173.7789 147.7383,173.9019 L147.7383,178.1579 C147.7383,178.2819 147.8383,178.3819 147.9623,178.3819 L155.3823,178.3819 C155.4783,178.3819 155.5593,178.3199 155.5913,178.2349 C155.5993,178.2109 155.6053,178.1849 155.6053,178.1579 L155.6053,173.9019 C155.6053,173.7789 155.5053,173.6789 155.3823,173.6789 L153.5623,173.6789 Z" id="Fill-11" fill="#FFFFFF"></path>
                    <mask id="mask-2" fill="white">
                        <use xlink:href="#path-1"></use>
                    </mask>
                    <g id="Clip-14"></g>
                    <path d="M157.2278,87.8761 L157.2278,113.8761" id="Stroke-32" stroke="#FFFFFF" stroke-width="4" mask="url(#mask-2)"></path>
                    <path d="M157.2278,205.8761 L157.2278,231.8761" id="Stroke-33" stroke="#FFFFFF" stroke-width="4" mask="url(#mask-2)"></path>
                    <path d="M157.2278,321.8761 L157.2278,347.8761" id="Stroke-34" stroke="#FFFFFF" stroke-width="4" mask="url(#mask-2)"></path>
                </g>
                <g id="toma-de-pedido" transform="translate(181.000000, 1.819226)">
                    <path d="M82.3202094,42.1796123 L120.27304,42.1796123" id="Stroke-36" stroke="#FFFFFF"></path>
                    <path d="M225.47716,54.5307283 L124.58167,54.5307283 C122.26233,54.5307283 120.364689,52.6330868 120.364689,50.3137472 L120.364689,34.0460396 C120.364689,31.7267 122.26233,29.8290585 124.58167,29.8290585 L225.47716,29.8290585 C227.7965,29.8290585 229.694142,31.7267 229.694142,34.0460396 L229.694142,50.3137472 C229.694142,52.6330868 227.7965,54.5307283 225.47716,54.5307283 Z" id="Stroke-38" stroke="#FFFFFF"></path>
                    <text id="TOMA-DE-PEDIDO" font-family="Antonio-Regular, Antonio" font-size="18" font-style="condensed" font-weight="normal" fill="#FFFFFF">
                        <tspan x="124.2153" y="49.7009798">TOMA DE PEDIDO</tspan>
                    </text>
                    <g id="Pedido" transform="translate(0.000000, 0.853774)">
                        <g>
                            <path d="M63.978,36.8937 C63.664,23.4367 55.982,16.3277 41.706,16.3277 C27.43,16.3277 19.749,23.4367 19.435,36.8937 L21.334,36.8937 C22.029,32.3577 23.497,28.6277 25.726,25.7597 C29.279,21.1887 34.655,18.8717 41.706,18.8717 C48.757,18.8717 54.134,21.1887 57.686,25.7597 C59.915,28.6277 61.383,32.3577 62.078,36.8937 L63.978,36.8937 Z M59.088,43.4427 C59.088,42.1727 59.023,40.9787 58.927,39.8217 C56.736,37.8167 52.757,36.2957 47.736,35.7297 C48.395,36.4717 48.965,37.4467 49.31,38.7297 C46.235,36.3077 40.198,36.8837 35.632,31.4617 C35.37,31.1597 35.144,30.8697 34.948,30.6057 C34.946,30.6027 34.943,30.5997 34.941,30.5967 C34.129,29.4987 33.852,28.8447 33.836,29.5677 C33.703,35.7997 29.285,40.6587 24.381,41.3437 C24.35,42.0287 24.324,42.7207 24.324,43.4427 C24.324,46.0767 24.754,48.4777 25.486,50.6417 C28.241,53.9647 32.791,54.9027 36.818,55.1517 C37.565,53.9627 39.243,53.1317 41.196,53.1317 C43.845,53.1317 45.992,54.6557 45.992,56.5357 C45.992,58.4157 43.845,59.9397 41.196,59.9397 C39.159,59.9397 37.423,59.0367 36.728,57.7647 C33.914,57.6017 30.82,57.1217 28.062,55.8197 C31.94,61.5357 37.952,64.5577 41.706,64.5577 C47.606,64.5577 59.088,57.1057 59.088,43.4427 Z M69.539,41.8317 L69.539,47.2637 C69.539,49.9907 67.329,52.2017 64.601,52.2017 L61.018,52.2017 C57.468,62.0597 48.401,68.0147 41.706,68.0147 C35.011,68.0147 25.945,62.0597 22.394,52.2017 L18.811,52.2017 C16.084,52.2017 13.873,49.9907 13.873,47.2637 L13.873,41.8317 C13.873,39.9547 14.92,38.3227 16.462,37.4877 C16.513,29.7757 18.761,23.7527 23.152,19.5887 C27.507,15.4587 33.75,13.3647 41.706,13.3647 C49.663,13.3647 55.905,15.4587 60.261,19.5887 C64.651,23.7527 66.899,29.7757 66.951,37.4877 C68.492,38.3227 69.539,39.9547 69.539,41.8317 Z M48.936,40.5667 C47.358,40.5667 46.078,41.8467 46.078,43.4247 C46.078,45.0037 47.358,46.2827 48.936,46.2827 C50.515,46.2827 51.794,45.0037 51.794,43.4247 C51.794,41.8467 50.515,40.5667 48.936,40.5667 Z M37.335,43.4247 C37.335,45.0037 36.055,46.2827 34.476,46.2827 C32.898,46.2827 31.618,45.0037 31.618,43.4247 C31.618,41.8467 32.898,40.5667 34.476,40.5667 C36.055,40.5667 37.335,41.8467 37.335,43.4247 Z" id="Fill-3" fill="#FFFFFF"></path>
                            <path d="M82.543,41.1633 C82.543,63.7163 64.26,82.0003 41.706,82.0003 C19.153,82.0003 0.87,63.7163 0.87,41.1633 C0.87,18.6093 19.153,0.3263 41.706,0.3263 C64.26,0.3263 82.543,18.6093 82.543,41.1633 Z" id="Stroke-28" stroke="#FFFFFF" stroke-width="4"></path>
                        </g>
                    </g>
                </g>
                <g id="transporte" transform="translate(181.000000, 236.632770)">
                    <path d="M82.3246805,42.3636368 L120.807439,42.3636368" id="Stroke-41" stroke="#FFFFFF"></path>
                    <path d="M201.723568,54.8872092 L124.635476,54.8872092 C122.581637,54.8872092 120.901223,53.2067954 120.901223,51.1529563 L120.901223,33.5748874 C120.901223,31.5210483 122.581637,29.8406345 124.635476,29.8406345 L201.723568,29.8406345 C203.777407,29.8406345 205.457821,31.5210483 205.457821,33.5748874 L205.457821,51.1529563 C205.457821,53.2067954 203.777407,54.8872092 201.723568,54.8872092 Z" id="Stroke-43" stroke="#FFFFFF" fill="#FFFFFF"></path>
                    <text id="TRANSPORTE" font-family="Antonio-Regular, Antonio" font-size="18" font-style="condensed" font-weight="normal" fill="#000493">
                        <tspan x="125.2153" y="48.8879361">TRANSPORTE</tspan>
                    </text>
                    <g transform="translate(0.000000, 0.040230)">
                        <g>
                            <path d="M21.37,65.5998 C20.242,65.5998 19.333,64.6908 19.333,63.5628 C19.333,62.4428 20.242,61.5258 21.37,61.5258 C22.49,61.5258 23.407,62.4428 23.407,63.5628 C23.407,64.6908 22.49,65.5998 21.37,65.5998 Z M21.37,59.4968 C19.123,59.4968 17.296,61.3158 17.296,63.5628 C17.296,65.8108 19.123,67.6368 21.37,67.6368 C23.617,67.6368 25.436,65.8108 25.436,63.5628 C25.436,61.3158 23.617,59.4968 21.37,59.4968 Z M42.666,65.5998 C41.538,65.5998 40.629,64.6908 40.629,63.5628 C40.629,62.4428 41.538,61.5258 42.666,61.5258 C43.786,61.5258 44.695,62.4428 44.695,63.5628 C44.695,64.6908 43.786,65.5998 42.666,65.5998 Z M42.666,59.4968 C40.419,59.4968 38.592,61.3158 38.592,63.5628 C38.592,65.8108 40.419,67.6368 42.666,67.6368 C44.914,67.6368 46.732,65.8108 46.732,63.5628 C46.732,61.3158 44.914,59.4968 42.666,59.4968 Z M52.053,56.4828 L52.053,60.8268 C52.053,61.9108 51.174,62.7888 50.09,62.7888 L47.991,62.7888 C47.611,60.1858 45.368,58.1848 42.66,58.1848 C39.959,58.1848 37.715,60.1858 37.336,62.7888 L26.694,62.7888 C26.315,60.1858 24.071,58.1848 21.37,58.1848 C18.668,58.1848 16.425,60.1858 16.046,62.7888 L13.416,62.7888 C12.332,62.7888 11.454,61.9108 11.454,60.8268 L11.454,56.4828 L52.053,56.4828 Z M47.919,52.3588 L40.452,52.3588 C40.284,52.3588 40.149,52.2248 40.149,52.0558 L40.149,46.2898 C40.149,46.1218 40.284,45.9868 40.452,45.9868 L41.875,45.9868 C41.951,45.9868 42.035,46.0208 42.094,46.0708 L48.129,51.8368 C48.331,52.0228 48.196,52.3588 47.919,52.3588 Z M26.835,45.0718 C26.835,45.8368 27.508,46.5358 28.312,46.5358 C29.077,46.5358 29.789,45.8768 29.789,45.0718 C29.789,44.2938 29.09,43.5948 28.312,43.5948 C27.561,43.5948 26.835,44.2548 26.835,45.0718 Z M30.053,49.5558 C30.053,48.6458 29.262,47.8408 28.312,47.8408 C27.403,47.8408 26.571,48.5928 26.571,49.5558 C26.571,50.4518 27.283,51.3098 28.312,51.3098 C29.288,51.3098 30.053,50.5048 30.053,49.5558 Z M31.411,49.6478 C31.411,51.2958 29.987,52.6278 28.325,52.6278 C26.743,52.6278 25.227,51.3888 25.227,49.6478 C25.227,48.7118 25.543,47.8018 26.598,47.1158 C25.859,46.3908 25.596,45.8108 25.596,45.0188 C25.596,43.5418 26.769,42.4208 28.339,42.4208 C29.815,42.4208 31.042,43.4758 31.042,45.0188 C31.042,45.7308 30.818,46.4168 30.027,47.0768 C30.884,47.6568 31.411,48.5398 31.411,49.6478 Z M21.493,44.5308 L18.46,48.8168 L21.493,48.8168 L21.493,44.5308 Z M17.167,48.6588 L21.545,42.6058 L22.917,42.6058 L22.917,48.8168 L23.51,48.8168 L23.51,49.8718 L22.917,49.8718 L22.917,51.3098 L23.51,51.3098 L23.51,52.4958 L20.912,52.4958 L20.912,51.3098 L21.493,51.3098 L21.493,49.8718 L17.167,49.8718 L17.167,48.6588 Z M51.277,52.1068 L43.567,44.4808 C43.079,43.9918 42.414,43.7228 41.732,43.7228 L37.843,43.7228 L37.843,42.2668 C37.843,41.1808 36.959,40.3058 35.873,40.3058 L13.416,40.3058 C12.33,40.3058 11.454,41.1808 11.454,42.2668 L11.454,55.3978 L52.052,55.3978 L52.052,53.9668 C52.052,53.2688 51.774,52.5948 51.277,52.1068 Z M71.959,34.2588 C71.959,45.3968 64.65,54.8558 54.578,58.1018 L54.577,54.5348 C62.759,51.4318 68.592,43.5148 68.592,34.2588 C68.592,22.3048 58.865,12.5778 46.911,12.5778 C34.956,12.5778 25.23,22.3048 25.23,34.2588 C25.23,35.4578 25.332,36.6338 25.521,37.7808 L22.116,37.7808 C21.953,36.6288 21.863,35.4548 21.863,34.2588 C21.863,20.4478 33.099,9.2108 46.911,9.2108 C60.722,9.2108 71.959,20.4478 71.959,34.2588 Z M45.268,34.2588 C45.268,33.3528 46.005,32.6158 46.911,32.6158 C47.818,32.6158 48.555,33.3528 48.555,34.2588 C48.555,35.1658 47.818,35.9028 46.911,35.9028 C46.005,35.9028 45.268,35.1658 45.268,34.2588 Z M50.198,33.8628 C50.126,33.2588 49.896,32.7068 49.543,32.2468 L51.967,17.1998 C52.057,16.6398 51.698,16.1058 51.146,15.9788 L51.119,15.9718 C50.566,15.8448 50.01,16.1668 49.845,16.7098 L45.428,31.2968 C44.34,31.8438 43.584,32.9598 43.584,34.2588 C43.584,36.0938 45.076,37.5868 46.911,37.5868 C47.253,37.5868 47.576,37.5198 47.887,37.4238 L57.114,42.2188 C57.622,42.4828 58.247,42.3178 58.558,41.8378 L58.572,41.8168 C58.884,41.3368 58.78,40.6988 58.332,40.3428 L50.198,33.8628 Z" id="Fill-1" fill="#FFFFFF"></path>
                            <path d="M82.543,41.1633 C82.543,63.7173 64.26,82.0003 41.706,82.0003 C19.153,82.0003 0.87,63.7173 0.87,41.1633 C0.87,18.6093 19.153,0.3263 41.706,0.3263 C64.26,0.3263 82.543,18.6093 82.543,41.1633 Z" id="Stroke-30" stroke="#FFFFFF" stroke-width="4"></path>
                        </g>
                    </g>
                </g>
                <g id="Logistica" transform="translate(0.000000, 119.000000)">
                    <path d="M138,39 L180,39" id="Stroke-46" stroke="#FFFFFF"></path>
                    <path d="M132.984024,52 L5.01755147,52 C2.25821334,52 0,49.7998065 0,47.1094861 L0,29.8905139 C0,27.2001935 2.25821334,25 5.01755147,25 L132.984024,25 C135.743363,25 138,27.2001935 138,29.8905139 L138,47.1094861 C138,49.7998065 135.743363,52 132.984024,52 Z" id="Stroke-48" stroke="#FFFFFF"></path>
                    <text id="LOGÍSTICA-DE-ENVÍO" font-family="Antonio-Regular, Antonio" font-size="18" font-style="condensed" font-weight="normal" letter-spacing="-0.190800011" fill="#FFFFFF">
                        <tspan x="11.2158" y="45.5202063">LOGÍSTICA DE ENVÍO</tspan>
                    </text>
                    <g id="logistica" transform="translate(181.000000, 0.673000)">
                        <g>
                            <path d="M39.6465,34.7311 C40.3145,34.8401 40.9985,34.8981 41.6955,34.8981 C42.3585,34.8981 43.0095,34.8471 43.6455,34.7491 L43.6455,43.2221 L39.6465,43.2221 L39.6465,34.7311 Z M41.6955,11.5241 C47.5655,11.5241 52.3405,16.2991 52.3405,22.1691 C52.3405,26.6111 49.6045,30.4241 45.7305,32.0171 C45.0665,32.2901 44.3685,32.4971 43.6455,32.6321 C43.0135,32.7491 42.3625,32.8141 41.6955,32.8141 C40.9945,32.8141 40.3105,32.7441 39.6465,32.6141 C38.9235,32.4721 38.2255,32.2591 37.5625,31.9781 C33.7395,30.3611 31.0505,26.5731 31.0505,22.1691 C31.0505,16.2991 35.8265,11.5241 41.6955,11.5241 Z M60.1155,62.2691 L60.1155,65.4931 L55.9545,65.4931 C55.8915,65.4931 55.8305,65.4991 55.7715,65.5101 L27.6415,65.5101 C27.5815,65.4991 27.5205,65.4931 27.4585,65.4931 L23.2975,65.4931 L23.2975,62.2691 L60.1155,62.2691 Z M52.6105,60.1851 L52.6105,60.4761 L30.4045,60.4761 L30.4045,60.1851 L30.4045,44.7111 L37.5625,44.7111 L38.3905,44.7111 L38.3905,53.6101 L39.6465,52.7941 L39.9555,52.5941 L41.6615,53.6101 L43.4155,52.5941 L43.6455,52.7461 L44.9485,53.6101 L44.9485,44.7111 L45.7305,44.7111 L52.6105,44.7111 L52.6105,60.1851 Z M29.6605,43.2221 C29.2485,43.2221 28.9155,43.5561 28.9155,43.9671 L28.9155,60.1851 L22.2555,60.1851 C21.6795,60.1851 21.2125,60.6511 21.2125,61.2271 L21.2125,66.5351 L21.2125,66.5521 L21.2125,69.0161 C21.2125,69.5921 21.6795,70.0591 22.2555,70.0591 L27.4585,70.0591 C28.0345,70.0591 28.5005,69.5921 28.5005,69.0161 L28.5005,67.5941 L54.9115,67.5941 L54.9115,69.0161 C54.9115,69.5921 55.3785,70.0591 55.9545,70.0591 L61.1575,70.0591 C61.7325,70.0591 62.1995,69.5921 62.1995,69.0161 L62.1995,66.5521 L62.1995,66.5351 L62.1995,61.2271 C62.1995,60.6511 61.7325,60.1851 61.1575,60.1851 L54.0995,60.1851 L54.0995,43.9671 C54.0995,43.5561 53.7655,43.2221 53.3545,43.2221 L45.7305,43.2221 L45.7305,34.2391 C50.7775,32.5481 54.4255,27.7781 54.4255,22.1691 C54.4255,15.1501 48.7145,9.4391 41.6955,9.4391 C34.6765,9.4391 28.9665,15.1501 28.9665,22.1691 C28.9665,27.7411 32.5665,32.4851 37.5625,34.2051 L37.5625,43.2221 L29.6605,43.2221 Z" id="Fill-5" fill="#FFFFFF"></path>
                            <path d="M41.6959,14.5175 C45.9149,14.5175 49.3469,17.9495 49.3469,22.1685 C49.3469,25.6695 46.9829,28.6275 43.7669,29.5325 C43.1079,29.7185 42.4139,29.8205 41.6959,29.8205 C40.9779,29.8205 40.2839,29.7185 39.6249,29.5325 C36.4089,28.6275 34.0449,25.6695 34.0449,22.1685 C34.0449,17.9495 37.4769,14.5175 41.6959,14.5175 M37.5919,30.3315 C38.8269,30.9555 40.2209,31.3085 41.6959,31.3085 C43.1359,31.3085 44.4979,30.9735 45.7109,30.3775 C48.7429,28.8885 50.8359,25.7685 50.8359,22.1685 C50.8359,17.1285 46.7359,13.0285 41.6959,13.0285 C36.6559,13.0285 32.5559,17.1285 32.5559,22.1685 C32.5559,25.7335 34.6079,28.8255 37.5919,30.3315" id="Fill-7" fill="#FFFFFF"></path>
                            <path d="M41.6959,23.668 C42.5239,23.668 43.1949,22.997 43.1949,22.169 C43.1949,21.649 42.9309,21.192 42.5289,20.923 L41.7449,16.557 L40.9739,20.855 C40.5109,21.111 40.1969,21.603 40.1969,22.169 C40.1969,22.997 40.8679,23.668 41.6959,23.668" id="Fill-9" fill="#FFFFFF"></path>
                            <path d="M82.543,41.1633 C82.543,63.7163 64.26,82.0003 41.706,82.0003 C19.153,82.0003 0.87,63.7163 0.87,41.1633 C0.87,18.6093 19.153,0.3263 41.706,0.3263 C64.26,0.3263 82.543,18.6093 82.543,41.1633 Z" id="Stroke-29" stroke="#FFFFFF" stroke-width="4"></path>
                            <polygon id="Fill-13" fill="#FFFFFF" points="32.633 58.5 33.029 58.5 33.029 55.596 32.633 55.596"></polygon>
                            <polygon id="Fill-15" fill="#FFFFFF" points="38.334 58.5 38.669 58.5 38.669 55.596 38.334 55.596"></polygon>
                            <polygon id="Fill-16" fill="#FFFFFF" points="33.316 58.5 33.712 58.5 33.712 55.596 33.316 55.596"></polygon>
                            <polygon id="Fill-17" fill="#FFFFFF" points="34.823 58.5 35.219 58.5 35.219 55.596 34.823 55.596"></polygon>
                            <polygon id="Fill-18" fill="#FFFFFF" points="36.224 58.5 36.559 58.5 36.559 55.596 36.224 55.596"></polygon>
                            <polygon id="Fill-19" fill="#FFFFFF" points="36.796 58.5 37.131 58.5 37.131 55.596 36.796 55.596"></polygon>
                            <polygon id="Fill-20" fill="#FFFFFF" points="35.481 58.5 36.035 58.5 36.035 55.596 35.481 55.596"></polygon>
                            <polygon id="Fill-21" fill="#FFFFFF" points="33.912 58.5 34.552 58.5 34.552 55.596 33.912 55.596"></polygon>
                            <polygon id="Fill-22" fill="#FFFFFF" points="37.4086 55.5965 37.4086 58.5005 37.6086 58.5005 38.0486 58.5005 38.0486 55.5965 37.5626 55.5965"></polygon>
                        </g>
                    </g>
                </g>
                <text id="RECEPCIÓN-" font-family="Antonio-Regular, Antonio" font-size="18" font-style="condensed" font-weight="normal" fill="#FFFFFF">
                    <tspan x="64.3652" y="401.520606">RECEPCIÓN </tspan>
                </text>
                <g id="recepcion" transform="translate(56.000000, 353.090647)">
                    <path d="M83.8317976,40.8986894 L123.855327,40.8986894" id="Stroke-51" stroke="#FFFFFF"></path>
                    <path d="M79.8168447,53.92368 L3.97077412,53.92368 C1.88955059,53.92368 0.187809412,52.2219388 0.187809412,50.1407153 L0.187809412,31.6557741 C0.187809412,29.5760329 1.88955059,27.8742918 3.97077412,27.8742918 L79.8168447,27.8742918 C81.8965859,27.8742918 83.5998094,29.5760329 83.5998094,31.6557741 L83.5998094,50.1407153 C83.5998094,52.2219388 81.8965859,53.92368 79.8168447,53.92368 Z" id="Stroke-53" stroke="#FFFFFF"></path>
                    <g id="recepción" transform="translate(125.000000, 0.582353)">
                        <g transform="translate(0.000000, -0.000000)">
                            <path d="M41.2278,32.8761 L41.2278,36.8761 L39.2278,36.8761 L39.2278,32.8761 L36.4788,32.8761 L39.3628,29.4631 L42.2578,32.8761 L41.2278,32.8761 Z M44.3968,24.8761 L41.2278,24.8761 L41.2278,27.8761 L40.2278,27.8761 L40.2278,24.8761 L34.3188,24.8761 C32.8368,24.8761 32.2278,26.9231 32.2278,28.4041 L32.2278,34.6991 L36.5888,38.9751 C36.8938,39.2601 36.8338,39.8761 37.0208,39.8761 L44.3968,39.8761 C45.8788,39.8761 48.2278,38.8331 48.2278,37.3511 L48.2278,28.4041 C48.2278,26.9231 45.8788,24.8761 44.3968,24.8761 Z" id="Fill-23" fill="#FFFFFF"></path>
                            <path d="M16.0684,20.4308 C16.0684,17.3818 18.5394,14.9108 21.5884,14.9108 C24.6364,14.9108 27.1074,17.3818 27.1074,20.4308 C27.1074,23.4788 24.6364,25.9508 21.5884,25.9508 C18.5394,25.9508 16.0684,23.4788 16.0684,20.4308" id="Fill-24" fill="#FFFFFF"></path>
                            <path d="M33.8316,43.4872 C33.3916,43.4872 32.9496,43.3262 32.6016,43.0012 L25.1906,36.0692 L25.1906,46.6952 C25.1906,47.8292 24.6556,48.8292 23.8356,49.4892 L27.8556,66.0092 C28.0906,66.9752 27.4976,67.9502 26.5316,68.1842 C26.3886,68.2202 26.2446,68.2352 26.1036,68.2352 C25.2926,68.2352 24.5556,67.6842 24.3556,66.8602 L22.0476,57.3742 L20.7476,66.4582 C20.6056,67.4422 19.6926,68.1272 18.7096,67.9862 C17.7246,67.8452 17.0406,66.9332 17.1816,65.9482 L19.5156,49.6342 C18.5926,48.9822 17.9856,47.9112 17.9856,46.6952 L17.9856,32.7092 C17.9856,30.7202 19.5986,29.1072 21.5886,29.1072 C22.0486,29.1072 22.4856,29.2012 22.8896,29.3592 C23.2066,29.4222 23.5116,29.5662 23.7656,29.8032 L35.0626,40.3702 C35.7886,41.0502 35.8276,42.1902 35.1476,42.9162 C34.7936,43.2952 34.3126,43.4872 33.8316,43.4872 Z" id="Fill-25" fill="#FFFFFF"></path>
                            <path d="M56.3044,20.4305 C56.3044,17.3825 58.7764,14.9115 61.8244,14.9115 C64.8724,14.9115 67.3444,17.3825 67.3444,20.4305 C67.3444,23.4795 64.8724,25.9505 61.8244,25.9505 C58.7764,25.9505 56.3044,23.4795 56.3044,20.4305 Z" id="Fill-26" fill="#FFFFFF"></path>
                            <path d="M59.6467,29.8032 C59.9007,29.5672 60.2057,29.4222 60.5227,29.3592 C60.9277,29.2012 61.3637,29.1072 61.8247,29.1072 C63.8137,29.1072 65.4267,30.7202 65.4267,32.7092 L65.4267,46.6952 C65.4267,47.9112 64.8197,48.9822 63.8967,49.6342 L66.2317,65.9482 C66.3717,66.9332 65.6877,67.8452 64.7027,67.9862 C63.7197,68.1272 62.8067,67.4422 62.6647,66.4582 L61.3647,57.3742 L59.0567,66.8602 C58.8567,67.6842 58.1197,68.2352 57.3087,68.2352 C57.1677,68.2352 57.0247,68.2202 56.8817,68.1842 C55.9147,67.9502 55.3217,66.9752 55.5567,66.0092 L59.5767,49.4892 C58.7567,48.8292 58.2217,47.8292 58.2217,46.6952 L58.2217,36.0692 L50.8107,43.0012 C50.4627,43.3262 50.0207,43.4872 49.5807,43.4872 C49.0997,43.4872 48.6197,43.2952 48.2647,42.9162 C47.5847,42.1902 47.6237,41.0502 48.3497,40.3702 L59.6467,29.8032 Z" id="Fill-27" fill="#FFFFFF"></path>
                            <path d="M82.543,41.1633 C82.543,63.7173 64.26,82.0003 41.706,82.0003 C19.153,82.0003 0.87,63.7173 0.87,41.1633 C0.87,18.6093 19.153,0.3263 41.706,0.3263 C64.26,0.3263 82.543,18.6093 82.543,41.1633 Z" id="Stroke-31" stroke="#FFFFFF" stroke-width="4"></path>
                        </g>
                    </g>
                </g>
            </g>
        </g>
    </g>
</svg>