<svg height="86" viewBox="0 0 87 86" width="87" xmlns="http://www.w3.org/2000/svg"><g fill="none" fill-rule="evenodd" transform="translate(2 1.673)"><g fill="#fff"><path d="m41.2278 32.8761v4h-2v-4h-2.749l2.884-3.413 2.895 3.413zm3.169-8h-3.169v3h-1v-3h-5.909c-1.482 0-2.091 2.047-2.091 3.528v6.295l4.361 4.276c.305.285.245.901.432.901h7.376c1.482 0 3.831-1.043 3.831-2.525v-8.947c0-1.481-2.349-3.528-3.831-3.528z"/><path d="m16.0684 20.4308c0-3.049 2.471-5.52 5.52-5.52 3.048 0 5.519 2.471 5.519 5.52 0 3.048-2.471 5.52-5.519 5.52-3.049 0-5.52-2.472-5.52-5.52"/><path d="m33.8316 43.4872c-.44 0-.882-.161-1.23-.486l-7.411-6.932v10.626c0 1.134-.535 2.134-1.355 2.794l4.02 16.52c.235.966-.358 1.941-1.324 2.175-.143.036-.287.051-.428.051-.811 0-1.548-.551-1.748-1.375l-2.308-9.486-1.3 9.084c-.142.984-1.055 1.669-2.038 1.528-.985-.141-1.669-1.053-1.528-2.038l2.334-16.314c-.923-.652-1.53-1.723-1.53-2.939v-13.986c0-1.989 1.613-3.602 3.603-3.602.46 0 .897.094 1.301.252.317.063.622.207.876.444l11.297 10.567c.726.68.765 1.82.085 2.546-.354.379-.835.571-1.316.571z"/><path d="m56.3044 20.4305c0-3.048 2.472-5.519 5.52-5.519s5.52 2.471 5.52 5.519c0 3.049-2.472 5.52-5.52 5.52s-5.52-2.471-5.52-5.52z"/><path d="m59.6467 29.8032c.254-.236.559-.381.876-.444.405-.158.841-.252 1.302-.252 1.989 0 3.602 1.613 3.602 3.602v13.986c0 1.216-.607 2.287-1.53 2.939l2.335 16.314c.14.985-.544 1.897-1.529 2.038-.983.141-1.896-.544-2.038-1.528l-1.3-9.084-2.308 9.486c-.2.824-.937 1.375-1.748 1.375-.141 0-.284-.015-.427-.051-.967-.234-1.56-1.209-1.325-2.175l4.02-16.52c-.82-.66-1.355-1.66-1.355-2.794v-10.626l-7.411 6.932c-.348.325-.79.486-1.23.486-.481 0-.961-.192-1.316-.571-.68-.726-.641-1.866.085-2.546z"/></g><path d="m82.543 41.1633c0 22.554-18.283 40.837-40.837 40.837-22.553 0-40.836-18.283-40.836-40.837s18.283-40.837 40.836-40.837c22.554 0 40.837 18.283 40.837 40.837z" stroke="#fff" stroke-width="4"/></g></svg>