<?xml version="1.0" encoding="UTF-8"?>
<svg width="87px" height="86px" viewBox="0 0 87 86" version="1.1" xmlns="http://www.w3.org/2000/svg" xmlns:xlink="http://www.w3.org/1999/xlink">
    <!-- Generator: Sketch 49.1 (51147) - http://www.bohemiancoding.com/sketch -->
    <title>recepción</title>
    <desc>Created with Sketch.</desc>
    <defs></defs>
    <g id="Page-1" stroke="none" stroke-width="1" fill="none" fill-rule="evenodd">
        <g id="Desktop" transform="translate(-469.000000, -2089.000000)">
            <g id="Page-1" transform="translate(290.000000, 1737.000000)">
                <g id="Group-35" transform="translate(65.000000, 0.673000)">
                    <g id="recepción" transform="translate(116.000000, 353.000000)">
                        <g transform="translate(0.000000, -0.000000)">
                            <path d="M41.2278,32.8761 L41.2278,36.8761 L39.2278,36.8761 L39.2278,32.8761 L36.4788,32.8761 L39.3628,29.4631 L42.2578,32.8761 L41.2278,32.8761 Z M44.3968,24.8761 L41.2278,24.8761 L41.2278,27.8761 L40.2278,27.8761 L40.2278,24.8761 L34.3188,24.8761 C32.8368,24.8761 32.2278,26.9231 32.2278,28.4041 L32.2278,34.6991 L36.5888,38.9751 C36.8938,39.2601 36.8338,39.8761 37.0208,39.8761 L44.3968,39.8761 C45.8788,39.8761 48.2278,38.8331 48.2278,37.3511 L48.2278,28.4041 C48.2278,26.9231 45.8788,24.8761 44.3968,24.8761 Z" id="Fill-23" fill="#FFFFFF"></path>
                            <path d="M16.0684,20.4308 C16.0684,17.3818 18.5394,14.9108 21.5884,14.9108 C24.6364,14.9108 27.1074,17.3818 27.1074,20.4308 C27.1074,23.4788 24.6364,25.9508 21.5884,25.9508 C18.5394,25.9508 16.0684,23.4788 16.0684,20.4308" id="Fill-24" fill="#FFFFFF"></path>
                            <path d="M33.8316,43.4872 C33.3916,43.4872 32.9496,43.3262 32.6016,43.0012 L25.1906,36.0692 L25.1906,46.6952 C25.1906,47.8292 24.6556,48.8292 23.8356,49.4892 L27.8556,66.0092 C28.0906,66.9752 27.4976,67.9502 26.5316,68.1842 C26.3886,68.2202 26.2446,68.2352 26.1036,68.2352 C25.2926,68.2352 24.5556,67.6842 24.3556,66.8602 L22.0476,57.3742 L20.7476,66.4582 C20.6056,67.4422 19.6926,68.1272 18.7096,67.9862 C17.7246,67.8452 17.0406,66.9332 17.1816,65.9482 L19.5156,49.6342 C18.5926,48.9822 17.9856,47.9112 17.9856,46.6952 L17.9856,32.7092 C17.9856,30.7202 19.5986,29.1072 21.5886,29.1072 C22.0486,29.1072 22.4856,29.2012 22.8896,29.3592 C23.2066,29.4222 23.5116,29.5662 23.7656,29.8032 L35.0626,40.3702 C35.7886,41.0502 35.8276,42.1902 35.1476,42.9162 C34.7936,43.2952 34.3126,43.4872 33.8316,43.4872 Z" id="Fill-25" fill="#FFFFFF"></path>
                            <path d="M56.3044,20.4305 C56.3044,17.3825 58.7764,14.9115 61.8244,14.9115 C64.8724,14.9115 67.3444,17.3825 67.3444,20.4305 C67.3444,23.4795 64.8724,25.9505 61.8244,25.9505 C58.7764,25.9505 56.3044,23.4795 56.3044,20.4305 Z" id="Fill-26" fill="#FFFFFF"></path>
                            <path d="M59.6467,29.8032 C59.9007,29.5672 60.2057,29.4222 60.5227,29.3592 C60.9277,29.2012 61.3637,29.1072 61.8247,29.1072 C63.8137,29.1072 65.4267,30.7202 65.4267,32.7092 L65.4267,46.6952 C65.4267,47.9112 64.8197,48.9822 63.8967,49.6342 L66.2317,65.9482 C66.3717,66.9332 65.6877,67.8452 64.7027,67.9862 C63.7197,68.1272 62.8067,67.4422 62.6647,66.4582 L61.3647,57.3742 L59.0567,66.8602 C58.8567,67.6842 58.1197,68.2352 57.3087,68.2352 C57.1677,68.2352 57.0247,68.2202 56.8817,68.1842 C55.9147,67.9502 55.3217,66.9752 55.5567,66.0092 L59.5767,49.4892 C58.7567,48.8292 58.2217,47.8292 58.2217,46.6952 L58.2217,36.0692 L50.8107,43.0012 C50.4627,43.3262 50.0207,43.4872 49.5807,43.4872 C49.0997,43.4872 48.6197,43.2952 48.2647,42.9162 C47.5847,42.1902 47.6237,41.0502 48.3497,40.3702 L59.6467,29.8032 Z" id="Fill-27" fill="#FFFFFF"></path>
                            <path d="M82.543,41.1633 C82.543,63.7173 64.26,82.0003 41.706,82.0003 C19.153,82.0003 0.87,63.7173 0.87,41.1633 C0.87,18.6093 19.153,0.3263 41.706,0.3263 C64.26,0.3263 82.543,18.6093 82.543,41.1633 Z" id="Stroke-31" stroke="#FFFFFF" stroke-width="4"></path>
                        </g>
                    </g>
                </g>
            </g>
        </g>
    </g>
</svg>