<?xml version="1.0" encoding="UTF-8"?>
<svg width="87px" height="86px" viewBox="0 0 87 86" version="1.1" xmlns="http://www.w3.org/2000/svg" xmlns:xlink="http://www.w3.org/1999/xlink">
    <!-- Generator: Sketch 49.1 (51147) - http://www.bohemiancoding.com/sketch -->
    <title>transporte</title>
    <desc>Created with Sketch.</desc>
    <defs></defs>
    <g id="Page-1" stroke="none" stroke-width="1" fill="none" fill-rule="evenodd">
        <g id="Desktop" transform="translate(-469.000000, -1972.000000)">
            <g id="Page-1" transform="translate(290.000000, 1737.000000)">
                <g id="Group-35" transform="translate(65.000000, 0.673000)">
                    <g id="transporte" transform="translate(116.000000, 236.000000)">
                        <g>
                            <path d="M21.37,65.5998 C20.242,65.5998 19.333,64.6908 19.333,63.5628 C19.333,62.4428 20.242,61.5258 21.37,61.5258 C22.49,61.5258 23.407,62.4428 23.407,63.5628 C23.407,64.6908 22.49,65.5998 21.37,65.5998 Z M21.37,59.4968 C19.123,59.4968 17.296,61.3158 17.296,63.5628 C17.296,65.8108 19.123,67.6368 21.37,67.6368 C23.617,67.6368 25.436,65.8108 25.436,63.5628 C25.436,61.3158 23.617,59.4968 21.37,59.4968 Z M42.666,65.5998 C41.538,65.5998 40.629,64.6908 40.629,63.5628 C40.629,62.4428 41.538,61.5258 42.666,61.5258 C43.786,61.5258 44.695,62.4428 44.695,63.5628 C44.695,64.6908 43.786,65.5998 42.666,65.5998 Z M42.666,59.4968 C40.419,59.4968 38.592,61.3158 38.592,63.5628 C38.592,65.8108 40.419,67.6368 42.666,67.6368 C44.914,67.6368 46.732,65.8108 46.732,63.5628 C46.732,61.3158 44.914,59.4968 42.666,59.4968 Z M52.053,56.4828 L52.053,60.8268 C52.053,61.9108 51.174,62.7888 50.09,62.7888 L47.991,62.7888 C47.611,60.1858 45.368,58.1848 42.66,58.1848 C39.959,58.1848 37.715,60.1858 37.336,62.7888 L26.694,62.7888 C26.315,60.1858 24.071,58.1848 21.37,58.1848 C18.668,58.1848 16.425,60.1858 16.046,62.7888 L13.416,62.7888 C12.332,62.7888 11.454,61.9108 11.454,60.8268 L11.454,56.4828 L52.053,56.4828 Z M47.919,52.3588 L40.452,52.3588 C40.284,52.3588 40.149,52.2248 40.149,52.0558 L40.149,46.2898 C40.149,46.1218 40.284,45.9868 40.452,45.9868 L41.875,45.9868 C41.951,45.9868 42.035,46.0208 42.094,46.0708 L48.129,51.8368 C48.331,52.0228 48.196,52.3588 47.919,52.3588 Z M26.835,45.0718 C26.835,45.8368 27.508,46.5358 28.312,46.5358 C29.077,46.5358 29.789,45.8768 29.789,45.0718 C29.789,44.2938 29.09,43.5948 28.312,43.5948 C27.561,43.5948 26.835,44.2548 26.835,45.0718 Z M30.053,49.5558 C30.053,48.6458 29.262,47.8408 28.312,47.8408 C27.403,47.8408 26.571,48.5928 26.571,49.5558 C26.571,50.4518 27.283,51.3098 28.312,51.3098 C29.288,51.3098 30.053,50.5048 30.053,49.5558 Z M31.411,49.6478 C31.411,51.2958 29.987,52.6278 28.325,52.6278 C26.743,52.6278 25.227,51.3888 25.227,49.6478 C25.227,48.7118 25.543,47.8018 26.598,47.1158 C25.859,46.3908 25.596,45.8108 25.596,45.0188 C25.596,43.5418 26.769,42.4208 28.339,42.4208 C29.815,42.4208 31.042,43.4758 31.042,45.0188 C31.042,45.7308 30.818,46.4168 30.027,47.0768 C30.884,47.6568 31.411,48.5398 31.411,49.6478 Z M21.493,44.5308 L18.46,48.8168 L21.493,48.8168 L21.493,44.5308 Z M17.167,48.6588 L21.545,42.6058 L22.917,42.6058 L22.917,48.8168 L23.51,48.8168 L23.51,49.8718 L22.917,49.8718 L22.917,51.3098 L23.51,51.3098 L23.51,52.4958 L20.912,52.4958 L20.912,51.3098 L21.493,51.3098 L21.493,49.8718 L17.167,49.8718 L17.167,48.6588 Z M51.277,52.1068 L43.567,44.4808 C43.079,43.9918 42.414,43.7228 41.732,43.7228 L37.843,43.7228 L37.843,42.2668 C37.843,41.1808 36.959,40.3058 35.873,40.3058 L13.416,40.3058 C12.33,40.3058 11.454,41.1808 11.454,42.2668 L11.454,55.3978 L52.052,55.3978 L52.052,53.9668 C52.052,53.2688 51.774,52.5948 51.277,52.1068 Z M71.959,34.2588 C71.959,45.3968 64.65,54.8558 54.578,58.1018 L54.577,54.5348 C62.759,51.4318 68.592,43.5148 68.592,34.2588 C68.592,22.3048 58.865,12.5778 46.911,12.5778 C34.956,12.5778 25.23,22.3048 25.23,34.2588 C25.23,35.4578 25.332,36.6338 25.521,37.7808 L22.116,37.7808 C21.953,36.6288 21.863,35.4548 21.863,34.2588 C21.863,20.4478 33.099,9.2108 46.911,9.2108 C60.722,9.2108 71.959,20.4478 71.959,34.2588 Z M45.268,34.2588 C45.268,33.3528 46.005,32.6158 46.911,32.6158 C47.818,32.6158 48.555,33.3528 48.555,34.2588 C48.555,35.1658 47.818,35.9028 46.911,35.9028 C46.005,35.9028 45.268,35.1658 45.268,34.2588 Z M50.198,33.8628 C50.126,33.2588 49.896,32.7068 49.543,32.2468 L51.967,17.1998 C52.057,16.6398 51.698,16.1058 51.146,15.9788 L51.119,15.9718 C50.566,15.8448 50.01,16.1668 49.845,16.7098 L45.428,31.2968 C44.34,31.8438 43.584,32.9598 43.584,34.2588 C43.584,36.0938 45.076,37.5868 46.911,37.5868 C47.253,37.5868 47.576,37.5198 47.887,37.4238 L57.114,42.2188 C57.622,42.4828 58.247,42.3178 58.558,41.8378 L58.572,41.8168 C58.884,41.3368 58.78,40.6988 58.332,40.3428 L50.198,33.8628 Z" id="Fill-1" fill="#FFFFFF"></path>
                            <path d="M82.543,41.1633 C82.543,63.7173 64.26,82.0003 41.706,82.0003 C19.153,82.0003 0.87,63.7173 0.87,41.1633 C0.87,18.6093 19.153,0.3263 41.706,0.3263 C64.26,0.3263 82.543,18.6093 82.543,41.1633 Z" id="Stroke-30" stroke="#FFFFFF" stroke-width="4"></path>
                        </g>
                    </g>
                </g>
            </g>
        </g>
    </g>
</svg>